<svg width="175" height="65" viewBox="0 0 175 65" fill="none" xmlns="http://www.w3.org/2000/svg">
<path d="M15.0446 33.9923L7.95467 24.2774V33.9348H0.864746V3.35303H7.95467V20.2535L14.9869 10.8835H23.7485L14.1223 22.4954L23.8061 33.9923H15.0446Z" fill="black"/>
<path d="M36.7177 11.7458C37.9858 10.9985 39.3692 10.6536 40.8679 10.6536V18.1266H38.9081C37.1212 18.1266 35.7954 18.5289 34.9308 19.2762C34.0662 20.0235 33.6051 21.3457 33.6051 23.2427V33.9348H26.5151V10.8835H33.6051V14.735C34.4697 13.4703 35.5072 12.4356 36.7177 11.7458Z" fill="black"/>
<path d="M65.9996 24.1051H49.9176C50.0328 25.5422 50.494 26.6344 51.301 27.3817C52.1079 28.129 53.1455 28.5314 54.2983 28.5314C56.0852 28.5314 57.2957 27.7841 57.9874 26.2895H65.5384C65.1349 27.7841 64.4433 29.1637 63.4633 30.3709C62.4258 31.5781 61.2153 32.5553 59.659 33.2451C58.1603 33.9349 56.4311 34.2798 54.5289 34.2798C52.2809 34.2798 50.2634 33.8199 48.4765 32.8427C46.6896 31.8655 45.3062 30.4858 44.3263 28.7038C43.3464 26.9218 42.8276 24.7949 42.8276 22.438C42.8276 20.0237 43.3464 17.9542 44.3263 16.1722C45.3062 14.3902 46.6896 13.0105 48.4765 12.0333C50.2634 11.0561 52.2809 10.5962 54.5865 10.5962C56.8346 10.5962 58.7944 11.0561 60.5813 11.9758C62.3105 12.8956 63.6939 14.2752 64.6738 15.9997C65.6537 17.7243 66.1725 19.7937 66.1725 22.0931C66.1149 22.7254 66.0572 23.4152 65.9996 24.1051ZM58.852 20.1961C58.852 18.9889 58.4485 18.0117 57.5839 17.3219C56.7769 16.6321 55.7394 16.2297 54.4712 16.2297C53.2608 16.2297 52.2809 16.5746 51.4739 17.2644C50.6669 17.9542 50.1481 18.9315 49.9752 20.1961H58.852Z" fill="black"/>
<path d="M69.8042 16.1146C70.7265 14.3326 71.9369 12.9529 73.4933 11.9757C75.0496 10.9985 76.7788 10.5386 78.681 10.5386C80.295 10.5386 81.736 10.8835 83.0041 11.5158C84.2723 12.1481 85.1945 13.0679 85.8286 14.1026V10.826H92.9185V33.9348H85.8286V30.7157C85.1369 31.8079 84.157 32.6701 82.9465 33.3025C81.736 33.9923 80.295 34.2797 78.6234 34.2797C76.7212 34.2797 75.0496 33.7623 73.4933 32.7851C71.9369 31.8079 70.7265 30.4282 69.8042 28.5887C68.8819 26.8067 68.4784 24.6798 68.4784 22.3229C68.4208 20.0235 68.8819 17.9541 69.8042 16.1146ZM84.3299 18.2415C83.35 17.2068 82.1395 16.6894 80.7561 16.6894C79.3727 16.6894 78.1622 17.2068 77.1823 18.184C76.2024 19.2187 75.6837 20.5984 75.6837 22.3229C75.6837 24.1049 76.2024 25.4846 77.1823 26.5193C78.1622 27.554 79.3727 28.0714 80.7561 28.0714C82.1395 28.0714 83.35 27.554 84.3299 26.5193C85.3098 25.4846 85.8286 24.1049 85.8286 22.3229C85.7709 20.6559 85.3098 19.2762 84.3299 18.2415Z" fill="black"/>
<path d="M110.96 27.9564V33.9348H107.329C104.735 33.9348 102.775 33.3025 101.334 32.0378C99.8931 30.7731 99.2014 28.7612 99.2014 25.887V16.6894H96.377V10.8835H99.2014V5.25H106.291V10.8835H110.96V16.7469H106.291V26.0019C106.291 26.6917 106.464 27.2091 106.81 27.4965C107.156 27.7839 107.675 27.9564 108.482 27.9564H110.96Z" fill="black"/>
<path d="M115.398 7.37697C114.591 6.62967 114.188 5.7674 114.188 4.6752C114.188 3.58299 114.591 2.66324 115.398 1.91594C116.205 1.16864 117.185 0.82373 118.453 0.82373C119.664 0.82373 120.701 1.16864 121.451 1.91594C122.258 2.66324 122.661 3.58299 122.661 4.6752C122.661 5.7674 122.258 6.62967 121.451 7.37697C120.644 8.12427 119.664 8.46918 118.453 8.46918C117.185 8.46918 116.205 8.12427 115.398 7.37697ZM121.97 10.8835V33.9923H114.88V10.8835H121.97Z" fill="black"/>
<path d="M137.533 27.3816L142.548 10.8835H150.099L141.856 33.9923H133.152L124.909 10.8835H132.518L137.533 27.3816Z" fill="black"/>
<path d="M174.827 24.1051H158.745C158.86 25.5422 159.322 26.6344 160.129 27.3817C160.936 28.129 161.973 28.5314 163.126 28.5314C164.913 28.5314 166.123 27.7841 166.815 26.2895H174.366C173.963 27.7841 173.271 29.1637 172.291 30.3709C171.253 31.5781 170.043 32.5553 168.487 33.2451C166.988 33.9349 165.259 34.2798 163.357 34.2798C161.108 34.2798 159.091 33.8199 157.304 32.8427C155.517 31.8655 154.134 30.4858 153.154 28.7038C152.174 26.9218 151.655 24.7949 151.655 22.438C151.655 20.0237 152.174 17.9542 153.154 16.1722C154.134 14.3902 155.517 13.0105 157.304 12.0333C159.091 11.0561 161.108 10.5962 163.414 10.5962C165.662 10.5962 167.622 11.0561 169.409 11.9758C171.138 12.8956 172.522 14.2752 173.501 15.9997C174.481 17.7243 175 19.7937 175 22.0931C174.942 22.7254 174.885 23.4152 174.827 24.1051ZM167.68 20.1961C167.68 18.9889 167.276 18.0117 166.412 17.3219C165.605 16.6321 164.567 16.2297 163.299 16.2297C162.088 16.2297 161.109 16.5746 160.302 17.2644C159.495 17.9542 158.976 18.9315 158.803 20.1961H167.68Z" fill="black"/>
<path d="M1.49868 46.179C2.47859 44.397 3.86199 43.0174 5.59124 42.0401C7.32049 41.0629 9.33795 40.603 11.6436 40.603C14.5257 40.603 17.0043 41.3503 18.9065 42.9024C20.8086 44.4545 22.1344 46.5814 22.7684 49.3407H15.2174C14.5833 47.5587 13.3729 46.6964 11.5283 46.6964C10.2026 46.6964 9.16502 47.2138 8.41568 48.191C7.66634 49.2257 7.26285 50.6628 7.26285 52.5023C7.26285 54.3993 7.66634 55.8364 8.41568 56.8137C9.16502 57.8484 10.2026 58.3083 11.5283 58.3083C13.3729 58.3083 14.5833 57.446 15.2174 55.664H22.7684C22.1344 58.3658 20.8663 60.4927 18.9065 62.0448C16.9466 63.5968 14.5257 64.3441 11.6436 64.3441C9.39559 64.3441 7.37813 63.8843 5.59124 62.907C3.86199 61.9298 2.47859 60.5502 1.49868 58.7681C0.518775 56.9861 0 54.8592 0 52.5023C0 50.088 0.518775 47.9611 1.49868 46.179Z" fill="black"/>
<path d="M33.6051 33.4175V64.0567H26.5151V33.4175H33.6051Z" fill="black"/>
<path d="M61.6187 40.948V64.0568H54.5287V60.8951C53.837 61.9299 52.8571 62.7346 51.589 63.367C50.3785 63.9993 48.9952 64.2867 47.4965 64.2867C45.7096 64.2867 44.1533 63.8843 42.8275 63.0795C41.4441 62.2748 40.4065 61.1826 39.6572 59.688C38.9079 58.1934 38.562 56.4688 38.562 54.4569V40.948H45.5943V53.4796C45.5943 55.0317 45.9978 56.2389 46.8048 57.1012C47.6117 57.9634 48.7069 58.3658 50.0327 58.3658C51.4161 58.3658 52.5113 57.9634 53.3183 57.1012C54.1253 56.2389 54.5287 55.0317 54.5287 53.4796V40.948H61.6187Z" fill="black"/>
<path d="M76.721 41.5803C77.9891 40.8905 79.3725 40.603 80.9865 40.603C82.8887 40.603 84.6179 41.0629 86.1743 42.0402C87.7306 43.0174 88.9411 44.397 89.8633 46.179C90.7856 47.9611 91.1891 50.0305 91.1891 52.4449C91.1891 54.8017 90.7279 56.9287 89.8633 58.7107C88.9411 60.4927 87.7306 61.9298 86.1743 62.9071C84.6179 63.8843 82.8887 64.4016 80.9865 64.4016C79.3725 64.4016 77.9315 64.0567 76.721 63.4244C75.5106 62.7921 74.5306 61.9298 73.8389 60.8376V64.0567H66.749V33.4175H73.8389V44.2246C74.473 43.1324 75.4529 42.2701 76.721 41.5803ZM82.4852 48.306C81.5053 47.2713 80.2948 46.8114 78.8538 46.8114C77.4704 46.8114 76.2599 47.3287 75.28 48.3635C74.3001 49.3982 73.7813 50.7778 73.7813 52.5598C73.7813 54.3419 74.3001 55.7215 75.28 56.7562C76.2599 57.7909 77.4704 58.3083 78.8538 58.3083C80.2372 58.3083 81.4476 57.7909 82.4852 56.7562C83.4651 55.7215 83.9839 54.3419 83.9839 52.5598C83.9839 50.6628 83.4651 49.2832 82.4852 48.306Z" fill="black"/>
</svg>
